# xmcd CD database file
#
# Track frame offsets:
#	150
#	20915
#	41835
#	62233
#	87903
#
# Disc length: 1407 seconds
#
# Revision: 1
# Processed by: cddbd v1.5.2PL0 Copyright (c) Steve Scherf et al.
# Submitted via: CDex 1.51
#
DISCID=42057d05
DTITLE=BETH HART - Leave The Light On(Live Bonus CD)
DYEAR=2005
DGENRE=Blues Rock
TTITLE0=Hiding Under Water
TTITLE1=Broken and Ugly
TTITLE2=Leave The Light On
TTITLE3=Get Your Shit Toghether
TTITLE4=L.A. Song
EXTD=YEAR: 2005
EXTT0=
EXTT1=
EXTT2=
EXTT3=
EXTT4=
PLAYORDER=
